PathFileType	4	(X/Y/Z)	S01_0006_Gait_markers.trc
DataRate	CameraRate	NumFrames	NumMarkers	Units	OrigDataRate	OrigDataStartFrame	OrigNumFrames
250.000000	250.000000	4	54	mm	250.000000	274	314
Frame#	Time	HEAD_ANT			R_HEAD			L_HEAD			C7			R_BACK			L_BACK			STERNUM			R_ACROMION			R_HUM_PROX			R_HUM_ANT			R_HUM_POST			R_ELBOW_LAT			R_ELBOW_MED			R_FOREARM			R_WIRST_LAT			R_WRITS_MED			R_HAND			L_ACROMION			L_HUM_PROX			L_HUM_ANT			L_HUM_POST			L_ELBOW_LAT			L_ELBOW_MED			L_FOREARM			L_WRIST_LAT			L_WIRST_MED			L_HAND			R_ILIAC			SACRUM			L_ILIAC			R_GTROCH			R_THIGH__1			R_THIGH_2			R_THIGH_3			R_THIGH_4			R_SHANK_1			R_SHANK_2			R_SHANK_3			R_SHANK_4			R_HEEL			R_FOOT_LAT			R_FOOT_MED			L_GTROCH			L_THIGH_1			L_THIGH_2			L_THIGH_3			L_THIGH_4			L_SHANK_1			L_SHANK_2			L_SHANK_3			L_SHANK_4			L_HEEL			L_FOOT_LAT			L_FOOT_MED			
		X1	Y1	Z1	X2	Y2	Z2	X3	Y3	Z3	X4	Y4	Z4	X5	Y5	Z5	X6	Y6	Z6	X7	Y7	Z7	X8	Y8	Z8	X9	Y9	Z9	X10	Y10	Z10	X11	Y11	Z11	X12	Y12	Z12	X13	Y13	Z13	X14	Y14	Z14	X15	Y15	Z15	X16	Y16	Z16	X17	Y17	Z17	X18	Y18	Z18	X19	Y19	Z19	X20	Y20	Z20	X21	Y21	Z21	X22	Y22	Z22	X23	Y23	Z23	X24	Y24	Z24	X25	Y25	Z25	X26	Y26	Z26	X27	Y27	Z27	X28	Y28	Z28	X29	Y29	Z29	X30	Y30	Z30	X31	Y31	Z31	X32	Y32	Z32	X33	Y33	Z33	X34	Y34	Z34	X35	Y35	Z35	X36	Y36	Z36	X37	Y37	Z37	X38	Y38	Z38	X39	Y39	Z39	X40	Y40	Z40	X41	Y41	Z41	X42	Y42	Z42	X43	Y43	Z43	X44	Y44	Z44	X45	Y45	Z45	X46	Y46	Z46	X47	Y47	Z47	X48	Y48	Z48	X49	Y49	Z49	X50	Y50	Z50	X51	Y51	Z51	X52	Y52	Z52	X53	Y53	Z53	X54	Y54	Z54	

275	1.096	1779.65673828125	1717.537353515625	-346.0092773437496	1716.994262695312	1661.451049804688	-275.301605224609	1720.661987304688	1676.161987304688	-420.9116210937496	1574.426635742188	1502.79296875	-366.0671386718747	1494.419677734375	1305.517700195312	-307.7480773925778	1501.599975585938	1311.65234375	-444.8309631347653	1749.098022460938	1335.511108398438	-357.4547119140622	1641.146484375	1449.33837890625	-191.0750885009762	1593.226806640625	1289.561157226562	-104.7873611450192	1653.7216796875	1203.561157226562	-97.40981292724582	1532.035888671875	1206.75537109375	-96.96958160400364	1578.878051757812	1099.235595703125	-85.93843078613257	1559.262084960938	1095.463500976562	-168.1826629638669	1688.6025390625	921.6516723632812	-83.92305755615214	1734.771118164062	860.5978393554688	-120.767738342285	1664.567993164062	830.4097290039062	-92.05310821533185	1737.307373046875	771.5545043945312	-66.72398376464827	1661.960327148438	1458.261352539063	-529.0443725585934	1659.3251953125	1294.015747070313	-625.4888916015622	1726.97412109375	1218.382690429688	-615.4545898437498	1611.347534179688	1212.456298828125	-659.3776245117185	1677.552490234375	1112.5888671875	-660.0101318359373	1620.873046875	1099.298095703125	-607.252746582031	1808.040161132812	957.9714355468751	-619.8063964843748	1840.693603515625	904.7671508789064	-561.752014160156	1810.5625	873.4562377929689	-627.298889160156	1893.924926757812	834.1340942382814	-600.8529663085935	1654.24658203125	1051.961791992188	-196.6354217529295	1521.203125	1028.44384765625	-358.3146972656248	1635.796997070312	1049.689331054688	-541.5065917968748	1622.83154296875	899.6128540039062	-181.2018585205076	1738.470825195312	633.1614379882812	-203.5829467773436	1786.68212890625	666.4509887695312	-202.8368225097655	1819.777954101562	571.7125244140625	-242.7673339843749	1758.773681640625	557.1165771484375	-228.7117309570311	1835.584350585938	342.8745422363282	-228.1352539062499	1893.961181640625	346.9045104980469	-246.2474822998046	1923.526489257812	268.2528381347657	-266.2388916015624	1863.43798828125	247.8569946289063	-251.2821807861328	1912.4384765625	39.53742599487313	-343.4937438964844	2073.73291015625	79.06079864501959	-264.5195007324219	2110.449951171875	118.0122222900391	-353.01953125	1584.7099609375	946.2961425781251	-541.8760986328123	1582.943237304688	654.2895507812501	-525.7139282226561	1536.34521484375	689.3056030273439	-535.5126953124999	1495.835815429688	598.0188598632814	-500.8910522460936	1557.209228515625	580.6624755859376	-498.0220642089843	1421.039184570312	337.6217346191407	-476.2405395507812	1360.217041015625	338.8257446289064	-474.8289794921874	1327.83740234375	260.2578735351564	-452.9408264160156	1389.601806640625	243.1968841552736	-448.9507751464843	1228.552124023438	99.92904663085946	-372.15625	1385.114135742188	19.10476112365733	-441.6527709960938	1427.440307617188	29.57359695434578	-339.1224975585938	
276	1.1	1785.229248046875	1716.665649414062	-345.507415771484	1722.701171875	1660.615112304688	-274.8983154296872	1726.26220703125	1675.305419921875	-420.3460083007809	1580.11279296875	1501.973266601562	-365.4480590820309	1500.14306640625	1304.421264648438	-307.5781249999997	1507.426025390625	1310.622314453125	-444.7156677246091	1754.877685546875	1334.726928710938	-357.1484680175778	1646.888793945312	1448.223510742188	-190.6395568847653	1599.04541015625	1288.289184570312	-104.5253982543942	1659.581298828125	1202.368774414062	-97.29615783691379	1537.983032226562	1205.585083007812	-96.78306579589817	1584.7724609375	1098.0263671875	-85.79589080810523	1565.167236328125	1094.366455078125	-168.0228881835935	1694.549926757812	920.4689331054688	-84.02838897705058	1740.54541015625	859.2904663085938	-120.9309082031248	1670.525268554688	829.2278442382812	-91.92156219482403	1743.147827148438	770.2415771484375	-66.93669891357405	1667.715209960938	1457.64794921875	-528.8192749023434	1665.102294921875	1293.322143554688	-625.0704956054684	1732.861328125	1217.791015625	-615.2992553710935	1617.27197265625	1211.798583984375	-658.9880371093748	1683.57958984375	1111.979614257813	-659.5153808593748	1626.888793945312	1098.576293945313	-606.7766113281248	1813.852416992188	957.2033081054689	-619.7906494140623	1846.56640625	904.0158691406251	-561.8739013671873	1816.446411132812	872.7485351562501	-627.4849853515623	1899.733642578125	833.2859497070314	-601.205383300781	1660.644653320312	1051.12548828125	-196.5903472900388	1527.230102539062	1027.430786132812	-358.0773925781248	1641.66455078125	1048.793090820313	-541.2216796874998	1629.077514648438	898.7567749023438	-181.0134277343748	1745.910278320312	632.7091064453125	-204.0148010253905	1793.953002929688	665.8557739257812	-203.5792083740233	1827.279174804688	571.7337036132812	-243.9083862304686	1766.728393554688	556.95068359375	-229.4167175292968	1842.749389648438	342.9176940917969	-228.8472137451171	1901.056762695312	346.4120788574219	-247.262237548828	1930.276733398438	267.2752685546876	-267.2625427246093	1870.0419921875	247.1895599365235	-252.4945526123046	1918.273681640625	38.74604415893563	-344.1942443847656	2079.6611328125	78.11693572998053	-265.6341857910156	2116.2099609375	116.7612304687501	-354.2563781738281	1592.036743164062	946.2479858398439	-542.2438964843748	1588.724853515625	653.4134521484376	-525.9249877929686	1542.227172851562	688.7266235351564	-535.7745361328124	1501.337158203125	597.3205566406251	-500.9368286132811	1562.70751953125	580.0749511718751	-498.3344116210936	1424.895629882812	337.5354309082032	-476.8699645996093	1364.058349609375	339.4434814453126	-475.5848693847656	1330.82080078125	261.2764282226564	-453.4839477539062	1392.295654296875	243.5234527587892	-449.6515808105468	1229.333862304688	102.3203735351563	-372.5999450683594	1385.232788085938	19.08693313598643	-441.7724304199219	1427.544189453125	29.69530105590828	-339.3266906738281	
277	1.104	1790.969360351562	1715.886962890625	-345.1802062988277	1728.406127929688	1659.714111328125	-274.4400939941403	1731.9375	1674.526733398438	-419.8529052734371	1585.809448242188	1501.070922851562	-365.0851440429684	1505.74853515625	1303.490234375	-307.4115905761716	1513.055419921875	1309.844604492188	-444.1810607910153	1760.828247070312	1334.040649414062	-356.845275878906	1652.573974609375	1447.16943359375	-190.3024902343747	1604.8671875	1287.162353515625	-104.3493881225583	1665.5546875	1201.262329101562	-97.01747131347629	1543.712524414062	1204.329345703125	-96.52481079101535	1590.894775390625	1096.845947265625	-85.61470031738257	1570.911743164062	1093.148681640625	-168.0828857421872	1700.580810546875	919.3186645507812	-84.09358978271464	1746.35107421875	858.099365234375	-121.0391769409178	1676.365844726562	828.1417846679688	-91.82747650146466	1749.028564453125	768.9558715820312	-67.20204162597639	1673.208251953125	1457.043212890625	-528.3623046874997	1670.846069335938	1292.721069335938	-624.7377929687497	1738.541748046875	1217.221801757813	-614.9266967773435	1622.92431640625	1211.181518554688	-658.626037597656	1689.318115234375	1111.427734375	-659.248840332031	1632.7158203125	1097.990356445313	-606.2733764648435	1819.65869140625	956.5426025390626	-619.7752685546873	1852.443603515625	903.1783447265626	-561.9811401367185	1822.136840820312	872.0230102539064	-627.6351318359373	1905.473266601562	832.5361328125001	-601.5588378906248	1666.520141601562	1050.144775390625	-196.6361999511716	1533.287353515625	1026.40576171875	-357.908752441406	1647.113403320312	1047.94189453125	-541.0785522460935	1635.379028320312	897.9713134765625	-180.9296569824217	1753.38671875	632.4536743164062	-204.8174438476561	1801.49853515625	665.5897216796875	-204.3622436523436	1834.570678710938	571.6200561523438	-245.4464263916014	1774.4443359375	556.651123046875	-230.4292755126952	1849.6728515625	342.4315490722657	-230.053497314453	1907.906494140625	345.6528930664063	-248.3695983886718	1936.763061523438	266.6222534179688	-268.2045288085937	1876.53857421875	246.6187286376954	-253.3463745117187	1923.49853515625	37.66243362426766	-345.0118713378906	2085.113037109375	76.97703552246099	-266.7820129394531	2121.90380859375	115.1933822631837	-355.4464721679688	1597.76806640625	945.5828247070314	-541.9852905273435	1594.428833007812	652.9045410156251	-525.9558105468749	1548.154052734375	688.0568237304689	-536.0423583984374	1507.146240234375	596.8078002929689	-501.6921081542968	1568.21728515625	579.4210815429689	-498.9398498535155	1428.71240234375	337.6269531250001	-477.4365539550781	1368.081787109375	339.9859008789064	-476.3485717773437	1333.875122070312	262.3066406250001	-454.4713439941406	1395.255737304688	243.7958526611329	-450.1457214355468	1230.254760742188	104.7128524780274	-372.7700500488281	1385.332763671875	19.14947128295908	-441.8504028320312	1427.567016601562	29.83592224121101	-339.4943542480469	
278	1.108	1796.569946289062	1715.234252929688	-344.5908203124996	1734.197631835938	1658.95263671875	-273.9852294921872	1737.549438476562	1673.778564453125	-419.437835693359	1591.568115234375	1500.182250976562	-364.6170043945309	1511.803833007812	1302.468383789062	-307.2234191894528	1518.981811523438	1309.004028320312	-443.8391418457028	1766.629150390625	1333.245849609375	-356.6758117675778	1658.32080078125	1446.080444335938	-189.9230957031247	1610.677978515625	1286.059692382812	-104.0887680053708	1671.50146484375	1200.194458007812	-96.84030914306614	1549.705810546875	1203.157958984375	-96.44520568847629	1596.951416015625	1095.586181640625	-85.54044342040991	1576.979858398438	1091.937377929688	-167.6544494628904	1706.519653320312	918.1312866210938	-84.03643035888652	1752.27978515625	856.8067626953125	-121.2883605957029	1682.168579101562	827.0639038085938	-91.76155090332013	1754.814575195312	767.67529296875	-67.42855072021467	1679.171264648438	1456.551147460938	-527.9869384765622	1676.485229492188	1292.20751953125	-624.4169311523434	1744.560668945312	1216.712890625	-614.630187988281	1628.716918945312	1210.569580078125	-658.292541503906	1695.066162109375	1110.909790039063	-658.9254760742185	1638.5693359375	1097.366333007813	-605.8800048828123	1825.49755859375	955.8900756835939	-619.8521728515623	1858.18798828125	902.4506225585939	-562.1872558593748	1827.803344726562	871.4095458984376	-627.7951660156248	1911.093383789062	831.7938842773439	-601.9743041992185	1672.541381835938	1049.230224609375	-196.6787872314451	1539.455322265625	1025.451416015625	-357.6994018554685	1653.088623046875	1047.237670898438	-540.9398193359373	1641.908081054688	897.2157592773438	-181.0508117675779	1760.882202148438	631.9496459960938	-205.4752349853514	1809.359008789062	665.7446899414062	-205.292510986328	1842.180908203125	571.6919555664062	-246.6175689697264	1782.232788085938	556.6928100585938	-231.179229736328	1856.422241210938	342.0123596191407	-230.9980926513671	1914.623901367188	344.8981628417969	-249.4398345947265	1942.979614257812	265.4194335937501	-269.5268554687499	1882.719116210938	245.8992309570313	-254.3861541748046	1928.326538085938	36.72932434082039	-345.6612854003906	2090.050537109375	75.68367004394537	-267.8376159667969	2126.813720703125	113.5814285278321	-356.5075378417969	1603.784545898438	944.6906738281251	-541.7633666992185	1600.278076171875	652.2841796875001	-526.1176757812499	1554.061889648438	687.5317993164064	-536.2091674804686	1512.951049804688	596.2011718750001	-502.1534729003905	1574.428466796875	578.8565673828126	-499.2659301757811	1432.812133789062	337.523162841797	-478.0033874511718	1372.1005859375	340.6784057617189	-477.2301940917968	1336.911376953125	263.2110900878907	-455.3348693847656	1397.953857421875	244.0395050048829	-450.6380004882812	1231.276245117188	107.1314163208009	-373.7595520019531	1385.43017578125	19.15596580505381	-441.9514770507812	1427.566650390625	29.94491577148445	-339.6562194824219	
